<svg xmlns="http://www.w3.org/2000/svg"
     xmlns:xlink="http://www.w3.org/1999/xlink"
     width="36px"
     height="36px"
     viewBox="0 0 36 36"
     version="1.1"
     preserveAspectRatio="xMidYMid meet">
     fill="white"
     stroke="white"
    <title>bars-line</title>
    <path 
        stroke="white"
        fill="white"
          d="M32,29H4a1,1,0,0,1,0-2H32a1,1,0,0,1,0,2Z" />
    <path  stroke="white" fill="white"
          d="M32,19H4a1,1,0,0,1,0-2H32a1,1,0,0,1,0,2Z" />
    <path  stroke="white" fill="white"
          d="M32,9H4A1,1,0,0,1,4,7H32a1,1,0,0,1,0,2Z" />
    <rect 
      x="0"
      y="0"
      width="36"
      height="36"
      fill="white"
      fill-opacity="0"
      />
</svg>