<svg xmlns="http://www.w3.org/2000/svg" xmlns:xlink="http://www.w3.org/1999/xlink" viewBox="0 0 436.32 436.32">
    <defs>
        <style>
            .cls-1{
                fill: #B8842C;
            }
            .cls-2{
                fill: #f75b08;
            }
            .cls-3{
                fill: none;
            }
        </style>
    </defs>
    <g id="Layer_1-2" data-name="Layer 1">
        <path class="cls-1" d="M243.5,89.76c-3.43,4.49-17.16,23-17.16,23L225,111.14c.53-1,1.06-4.48,1.06-9,0-11.88-3.44-30.63-17.69-30.63-15,0-15.58,19.8-15.58,22.18v44.62h25.88v2.11H192.81V274.57c0,17.16,5.81,25.6,12.94,25.6h2.37v2.12h-56v-2.12h2.38c7.13,0,12.67-5,12.67-25.6V140.45h-15v-2.11h15v-29h.27c0-21.65,13.46-39.87,41.18-39.87C225.55,69.43,240.33,84.48,243.5,89.76Z" fill="blue"/><path class="cls-1" d="M243.51,150l40.66-11.88-.27,164.22c0,36.43-23,65.73-46.46,73.13,20.33-17.69,21.12-52,21.12-69.7V184.27c0-23-.53-32.2-12.67-32.2h-2.38Z"/>
        <path class="cls-2" d="M278.65,92.85a45.71,45.71,0,0,0-20.8-31.95c4.79,6.33,3.23,15.49,0,22.78s-7.82,14.19-8.68,22.13c-1.29,11.83,6,22.67,13,32.26a46.91,46.91,0,0,1-1.78-34.24,30.33,30.33,0,0,1,7.27,25.65A46.1,46.1,0,0,0,278.65,92.85Z"/>
        <rect class="cls-3" width="436.32" height="436.32"/>
    </g>
</svg>